<?xml version="1.0" encoding="UTF-8"?>
<svg xmlns="http://www.w3.org/2000/svg" xmlns:xlink="http://www.w3.org/1999/xlink" width="50px" height="px" viewBox="0 0 50 50" version="1.1">
<g id="surface1">
<path style=" stroke:none;fill-rule:nonzero;fill:rgb(89.411765%,30.196078%,14.901961%);fill-opacity:1;" d="M 7.4375 44.484375 L 3.527344 0.648438 L 46.472656 0.648438 L 42.558594 44.476562 L 24.972656 49.351562 Z M 7.4375 44.484375 "/>
<path style=" stroke:none;fill-rule:nonzero;fill:rgb(94.509804%,39.607843%,16.078431%);fill-opacity:1;" d="M 25 45.625 L 39.210938 41.683594 L 42.554688 4.234375 L 25 4.234375 Z M 25 45.625 "/>
<path style=" stroke:none;fill-rule:nonzero;fill:rgb(92.156863%,92.156863%,92.156863%);fill-opacity:1;" d="M 25 20.492188 L 17.886719 20.492188 L 17.394531 14.984375 L 25 14.984375 L 25 9.609375 L 11.519531 9.609375 L 11.648438 11.050781 L 12.96875 25.867188 L 25 25.867188 Z M 25 34.453125 L 24.976562 34.460938 L 18.988281 32.84375 L 18.605469 28.554688 L 13.210938 28.554688 L 13.960938 36.996094 L 24.976562 40.054688 L 25 40.046875 Z M 25 34.453125 "/>
<path style=" stroke:none;fill-rule:nonzero;fill:rgb(100%,100%,100%);fill-opacity:1;" d="M 24.980469 20.492188 L 24.980469 25.867188 L 31.601562 25.867188 L 30.976562 32.839844 L 24.980469 34.457031 L 24.980469 40.050781 L 36.003906 36.996094 L 36.082031 36.085938 L 37.347656 21.933594 L 37.476562 20.492188 Z M 24.980469 9.609375 L 24.980469 14.984375 L 37.96875 14.984375 L 38.074219 13.777344 L 38.320312 11.050781 L 38.449219 9.609375 Z M 24.980469 9.609375 "/>
</g>
</svg>
