<?xml version="1.0" encoding="UTF-8"?>
<svg xmlns="http://www.w3.org/2000/svg" xmlns:xlink="http://www.w3.org/1999/xlink" width="50px" height="px" viewBox="0 0 50 50" version="1.1">
<g id="surface1">
<path style=" stroke:none;fill-rule:nonzero;fill:rgb(0%,45.490196%,74.117647%);fill-opacity:1;" d="M 18.601562 38.328125 C 18.601562 38.328125 16.738281 39.410156 19.925781 39.777344 C 23.792969 40.21875 25.765625 40.15625 30.023438 39.351562 C 30.023438 39.351562 31.144531 40.050781 32.707031 40.660156 C 23.160156 44.75 11.101562 40.421875 18.601562 38.328125 Z M 17.433594 32.988281 C 17.433594 32.988281 15.34375 34.535156 18.535156 34.867188 C 22.664062 35.292969 25.921875 35.328125 31.566406 34.242188 C 31.566406 34.242188 32.34375 35.03125 33.570312 35.464844 C 22.03125 38.839844 9.175781 35.730469 17.433594 32.992188 Z M 17.433594 32.988281 "/>
<path style=" stroke:none;fill-rule:nonzero;fill:rgb(91.764706%,17.647059%,18.039216%);fill-opacity:1;" d="M 27.265625 23.933594 C 29.621094 26.644531 26.648438 29.078125 26.648438 29.078125 C 26.648438 29.078125 32.621094 25.996094 29.878906 22.132812 C 27.316406 18.535156 25.351562 16.746094 35.988281 10.578125 C 35.988281 10.582031 19.296875 14.746094 27.265625 23.933594 Z M 27.265625 23.933594 "/>
<path style=" stroke:none;fill-rule:nonzero;fill:rgb(0%,45.490196%,74.117647%);fill-opacity:1;" d="M 39.890625 42.277344 C 39.890625 42.277344 41.269531 43.414062 38.371094 44.292969 C 32.863281 45.960938 15.441406 46.464844 10.601562 44.359375 C 8.863281 43.601562 12.125 42.550781 13.152344 42.332031 C 14.222656 42.097656 14.832031 42.140625 14.832031 42.140625 C 12.898438 40.78125 2.328125 44.816406 9.464844 45.976562 C 28.925781 49.128906 44.9375 44.554688 39.890625 42.277344 Z M 19.496094 27.457031 C 19.496094 27.457031 10.636719 29.5625 16.359375 30.328125 C 18.777344 30.652344 23.59375 30.578125 28.082031 30.203125 C 31.75 29.894531 35.429688 29.234375 35.429688 29.234375 C 35.429688 29.234375 34.140625 29.789062 33.203125 30.429688 C 24.203125 32.796875 6.816406 31.691406 11.824219 29.273438 C 16.054688 27.226562 19.496094 27.457031 19.496094 27.457031 Z M 35.394531 36.34375 C 44.542969 31.589844 40.3125 27.023438 37.359375 27.640625 C 36.636719 27.789062 36.3125 27.921875 36.3125 27.921875 C 36.3125 27.921875 36.582031 27.5 37.09375 27.316406 C 42.9375 25.265625 47.429688 33.375 35.210938 36.585938 C 35.210938 36.585938 35.351562 36.457031 35.394531 36.34375 Z M 35.394531 36.34375 "/>
<path style=" stroke:none;fill-rule:nonzero;fill:rgb(91.764706%,17.647059%,18.039216%);fill-opacity:1;" d="M 29.878906 0.621094 C 29.878906 0.621094 34.945312 5.6875 25.074219 13.480469 C 17.15625 19.734375 23.269531 23.296875 25.070312 27.371094 C 20.449219 23.203125 17.058594 19.53125 19.332031 16.113281 C 22.671875 11.101562 31.921875 8.671875 29.878906 0.621094 Z M 29.878906 0.621094 "/>
<path style=" stroke:none;fill-rule:nonzero;fill:rgb(0%,45.490196%,74.117647%);fill-opacity:1;" d="M 20.394531 49.226562 C 29.175781 49.789062 42.660156 48.914062 42.980469 44.757812 C 42.980469 44.757812 42.367188 46.335938 35.722656 47.585938 C 28.230469 48.996094 18.984375 48.832031 13.503906 47.925781 C 13.503906 47.925781 14.625 48.855469 20.394531 49.226562 Z M 20.394531 49.226562 "/>
</g>
</svg>
