<?xml version="1.0" encoding="UTF-8"?>
<svg xmlns="http://www.w3.org/2000/svg" xmlns:xlink="http://www.w3.org/1999/xlink" width="50px" height="px" viewBox="0 0 50 50" version="1.1">
<g id="surface1">
<path style=" stroke:none;fill-rule:nonzero;fill:rgb(100%,0%,0%);fill-opacity:1;" d="M 17.582031 0.644531 C 16.863281 0.652344 16.183594 0.789062 15.550781 1.105469 C 13.980469 1.890625 13.328125 3.578125 13.320312 5.3125 C 13.320312 6.875 13.765625 8.613281 14.386719 10.398438 C 12.1875 12.859375 8.46875 17.179688 5.40625 21.675781 C 3.804688 24.03125 2.40625 26.394531 1.542969 28.5625 C 0.679688 30.730469 0.265625 32.765625 1.105469 34.449219 C 1.890625 36.019531 3.578125 36.671875 5.3125 36.679688 C 6.875 36.679688 8.613281 36.234375 10.398438 35.613281 C 12.859375 37.8125 17.179688 41.53125 21.675781 44.59375 C 24.03125 46.195312 26.394531 47.59375 28.5625 48.457031 C 30.730469 49.320312 32.765625 49.734375 34.449219 48.894531 C 36.019531 48.109375 36.671875 46.421875 36.679688 44.6875 C 36.679688 43.125 36.234375 41.386719 35.613281 39.601562 C 37.8125 37.140625 41.53125 32.820312 44.59375 28.324219 C 46.195312 25.96875 47.59375 23.605469 48.457031 21.4375 C 49.320312 19.269531 49.734375 17.234375 48.894531 15.550781 C 48.109375 13.980469 46.421875 13.328125 44.6875 13.320312 C 43.125 13.320312 41.386719 13.765625 39.601562 14.386719 C 37.140625 12.1875 32.820312 8.46875 28.324219 5.40625 C 25.96875 3.804688 23.605469 2.40625 21.4375 1.542969 C 20.355469 1.109375 19.300781 0.792969 18.3125 0.683594 C 18.066406 0.660156 17.820312 0.644531 17.582031 0.644531 Z M 17.625 2.679688 C 17.785156 2.679688 17.957031 2.691406 18.136719 2.710938 C 18.859375 2.789062 19.726562 3.015625 20.695312 3.398438 C 22.636719 4.171875 24.917969 5.507812 27.199219 7.058594 C 31.765625 10.164062 36.355469 14.136719 38.699219 16.246094 C 38.976562 16.492188 39.363281 16.570312 39.710938 16.441406 C 41.585938 15.75 43.367188 15.320312 44.683594 15.320312 C 46 15.324219 46.699219 15.632812 47.105469 16.445312 C 47.496094 17.230469 47.371094 18.757812 46.597656 20.695312 C 45.828125 22.636719 44.492188 24.917969 42.941406 27.199219 C 39.835938 31.765625 35.863281 36.355469 33.753906 38.699219 C 33.507812 38.976562 33.429688 39.363281 33.558594 39.710938 C 34.25 41.585938 34.679688 43.367188 34.675781 44.683594 C 34.675781 46 34.367188 46.699219 33.550781 47.105469 C 32.769531 47.496094 31.242188 47.371094 29.300781 46.597656 C 27.363281 45.828125 25.082031 44.492188 22.800781 42.941406 C 18.234375 39.835938 13.644531 35.863281 11.300781 33.753906 C 11.023438 33.507812 10.636719 33.429688 10.289062 33.558594 C 8.414062 34.25 6.632812 34.679688 5.316406 34.675781 C 4 34.675781 3.300781 34.367188 2.894531 33.550781 C 2.503906 32.769531 2.628906 31.242188 3.398438 29.300781 C 4.171875 27.363281 5.507812 25.082031 7.058594 22.800781 C 10.164062 18.234375 14.136719 13.644531 16.246094 11.300781 C 16.492188 11.023438 16.570312 10.636719 16.441406 10.289062 C 15.75 8.414062 15.320312 6.632812 15.320312 5.316406 C 15.324219 4 15.632812 3.300781 16.445312 2.894531 C 16.742188 2.746094 17.140625 2.675781 17.625 2.679688 Z M 23 9 C 21.929688 9 20.953125 9.472656 20.421875 10.261719 C 19.890625 11.054688 19.769531 12.015625 19.839844 13.03125 C 19.957031 14.765625 20.726562 16.777344 21.792969 18.789062 C 21.496094 18.941406 21.214844 19.117188 20.945312 19.308594 C 19.953125 17.640625 18.769531 15.605469 17.703125 13.296875 C 17.550781 12.96875 17.234375 12.75 16.878906 12.722656 C 16.519531 12.691406 16.171875 12.855469 15.96875 13.152344 C 14.839844 14.792969 13.132812 17.375 11.6875 19.957031 C 10.242188 22.542969 9 24.988281 9 27 C 9 28.070312 9.472656 29.046875 10.261719 29.578125 C 11.054688 30.109375 12.015625 30.230469 13.03125 30.164062 C 14.765625 30.042969 16.777344 29.273438 18.789062 28.210938 C 18.941406 28.503906 19.117188 28.785156 19.308594 29.058594 C 17.640625 30.046875 15.605469 31.230469 13.296875 32.300781 C 12.96875 32.449219 12.75 32.765625 12.722656 33.121094 C 12.691406 33.480469 12.855469 33.828125 13.152344 34.03125 C 14.792969 35.160156 17.375 36.867188 19.957031 38.3125 C 22.542969 39.757812 24.988281 41 27 41 C 28.070312 41 29.046875 40.527344 29.578125 39.738281 C 30.109375 38.945312 30.230469 37.984375 30.164062 36.96875 C 30.042969 35.234375 29.273438 33.222656 28.210938 31.210938 C 28.503906 31.058594 28.785156 30.882812 29.058594 30.691406 C 30.046875 32.359375 31.230469 34.394531 32.300781 36.703125 C 32.449219 37.03125 32.765625 37.25 33.121094 37.277344 C 33.480469 37.308594 33.828125 37.144531 34.03125 36.847656 C 35.160156 35.207031 36.867188 32.625 38.3125 30.042969 C 39.757812 27.457031 41 25.011719 41 23 C 41 21.929688 40.527344 20.953125 39.738281 20.421875 C 38.945312 19.890625 37.984375 19.769531 36.96875 19.839844 C 35.234375 19.957031 33.222656 20.726562 31.210938 21.792969 C 31.058594 21.496094 30.882812 21.214844 30.691406 20.945312 C 32.359375 19.953125 34.394531 18.769531 36.703125 17.703125 C 37.03125 17.550781 37.25 17.234375 37.277344 16.878906 C 37.308594 16.519531 37.144531 16.171875 36.847656 15.96875 C 35.207031 14.839844 32.625 13.132812 30.042969 11.6875 C 27.457031 10.242188 25.011719 9 23 9 Z M 23 11 C 24.007812 11 26.574219 12.039062 29.0625 13.429688 C 31.027344 14.527344 32.753906 15.695312 34.300781 16.726562 C 32.433594 17.675781 30.617188 18.644531 29.242188 19.445312 C 28.0625 18.542969 26.59375 18 25 18 C 24.542969 18 24.09375 18.046875 23.65625 18.132812 C 22.605469 16.191406 21.925781 14.242188 21.832031 12.894531 C 21.785156 12.148438 21.914062 11.625 22.082031 11.375 C 22.25 11.128906 22.414062 11 23 11 Z M 16.730469 15.699219 C 17.675781 17.566406 18.644531 19.382812 19.449219 20.757812 C 18.542969 21.9375 18 23.40625 18 25 C 18 25.457031 18.046875 25.90625 18.132812 26.34375 C 16.191406 27.394531 14.242188 28.074219 12.894531 28.167969 C 12.148438 28.214844 11.625 28.085938 11.375 27.917969 C 11.128906 27.75 11 27.585938 11 27 C 11 25.992188 12.039062 23.425781 13.429688 20.9375 C 14.527344 18.972656 15.695312 17.246094 16.726562 15.699219 Z M 25 20 C 26.339844 20 27.542969 20.527344 28.4375 21.375 C 28.4375 21.378906 28.441406 21.378906 28.441406 21.382812 C 28.539062 21.476562 28.628906 21.578125 28.722656 21.679688 C 28.808594 21.777344 28.890625 21.882812 28.972656 21.988281 C 29.054688 22.097656 29.140625 22.203125 29.214844 22.320312 C 29.335938 22.511719 29.445312 22.714844 29.542969 22.925781 C 29.589844 23.03125 29.628906 23.140625 29.671875 23.25 C 29.875 23.796875 30 24.382812 30 25 C 30 26.339844 29.472656 27.542969 28.625 28.4375 C 28.621094 28.4375 28.621094 28.441406 28.621094 28.441406 C 28.523438 28.539062 28.421875 28.628906 28.320312 28.722656 C 28.222656 28.808594 28.117188 28.890625 28.011719 28.972656 C 27.902344 29.054688 27.796875 29.140625 27.679688 29.214844 C 27.488281 29.335938 27.285156 29.445312 27.078125 29.542969 C 26.96875 29.589844 26.859375 29.628906 26.75 29.671875 C 26.203125 29.875 25.617188 30 25 30 C 23.660156 30 22.457031 29.472656 21.5625 28.625 C 21.5625 28.621094 21.558594 28.621094 21.558594 28.621094 C 21.460938 28.523438 21.371094 28.421875 21.28125 28.320312 C 21.191406 28.222656 21.109375 28.117188 21.027344 28.011719 C 20.945312 27.902344 20.859375 27.796875 20.785156 27.679688 C 20.664062 27.488281 20.554688 27.285156 20.460938 27.078125 C 20.410156 26.96875 20.371094 26.859375 20.328125 26.75 C 20.125 26.203125 20 25.617188 20 25 C 20 23.660156 20.527344 22.457031 21.378906 21.5625 C 21.378906 21.5625 21.378906 21.558594 21.382812 21.558594 C 21.476562 21.460938 21.578125 21.371094 21.679688 21.28125 C 21.777344 21.191406 21.882812 21.109375 21.988281 21.027344 C 22.097656 20.945312 22.203125 20.859375 22.320312 20.785156 C 22.511719 20.664062 22.714844 20.554688 22.925781 20.460938 C 23.03125 20.410156 23.140625 20.371094 23.25 20.328125 C 23.796875 20.125 24.382812 20 25 20 Z M 37.621094 21.828125 C 38.09375 21.851562 38.4375 21.957031 38.621094 22.082031 C 38.871094 22.25 39 22.414062 39 23 C 39 24.007812 37.960938 26.574219 36.566406 29.066406 C 35.472656 31.027344 34.304688 32.753906 33.269531 34.304688 C 32.324219 32.433594 31.355469 30.617188 30.550781 29.242188 C 31.457031 28.0625 32 26.59375 32 25 C 32 24.542969 31.953125 24.09375 31.867188 23.65625 C 33.808594 22.605469 35.757812 21.925781 37.105469 21.832031 C 37.289062 21.820312 37.464844 21.820312 37.621094 21.828125 Z M 26.5 22 C 25.671875 22 25 22.671875 25 23.5 C 25 24.328125 25.671875 25 26.5 25 C 27.328125 25 28 24.328125 28 23.5 C 28 22.671875 27.328125 22 26.5 22 Z M 20.757812 30.550781 C 21.9375 31.457031 23.40625 32 25 32 C 25.457031 32 25.90625 31.953125 26.34375 31.867188 C 27.394531 33.808594 28.074219 35.757812 28.167969 37.105469 C 28.214844 37.851562 28.085938 38.375 27.917969 38.625 C 27.75 38.871094 27.585938 39 27 39 C 25.992188 39 23.425781 37.960938 20.9375 36.570312 C 18.972656 35.472656 17.246094 34.304688 15.699219 33.273438 C 17.566406 32.324219 19.382812 31.355469 20.757812 30.554688 Z M 20.757812 30.550781 "/>
</g>
</svg>
