<?xml version="1.0" encoding="UTF-8"?>
<svg xmlns="http://www.w3.org/2000/svg" xmlns:xlink="http://www.w3.org/1999/xlink" width="50px" height="px" viewBox="0 0 50 50" version="1.1">
<g id="surface1">
<path style=" stroke:none;fill-rule:nonzero;fill:rgb(0%,38.039216%,54.117647%);fill-opacity:1;" d="M 45.972656 38.375 C 43.246094 38.300781 41.167969 38.554688 39.390625 39.304688 C 38.882812 39.519531 38.078125 39.523438 37.996094 40.15625 C 38.273438 40.449219 38.316406 40.882812 38.539062 41.242188 C 38.960938 41.925781 39.679688 42.847656 40.320312 43.332031 C 41.015625 43.859375 41.738281 44.421875 42.488281 44.878906 C 43.820312 45.691406 45.308594 46.15625 46.589844 46.96875 C 47.347656 47.449219 48.097656 48.054688 48.835938 48.597656 C 49.199219 48.863281 49.445312 49.28125 49.917969 49.449219 L 49.917969 49.371094 C 49.671875 49.054688 49.605469 48.617188 49.378906 48.289062 L 48.371094 47.28125 C 47.386719 45.972656 46.136719 44.828125 44.808594 43.875 C 43.75 43.113281 41.378906 42.085938 40.9375 40.855469 L 40.859375 40.777344 C 41.609375 40.691406 42.488281 40.421875 43.183594 40.234375 C 44.347656 39.921875 45.390625 40.003906 46.589844 39.691406 L 48.214844 39.226562 L 48.214844 38.917969 C 47.609375 38.296875 47.175781 37.46875 46.515625 36.90625 C 44.777344 35.429688 42.886719 33.953125 40.9375 32.726562 C 39.859375 32.042969 38.523438 31.597656 37.378906 31.019531 C 36.992188 30.828125 36.316406 30.726562 36.058594 30.402344 C 35.460938 29.636719 35.132812 28.664062 34.667969 27.769531 C 33.695312 25.898438 32.742188 23.855469 31.878906 21.882812 C 31.292969 20.542969 30.910156 19.21875 30.175781 18.011719 C 26.660156 12.234375 22.878906 8.742188 17.015625 5.316406 C 15.765625 4.585938 14.265625 4.296875 12.679688 3.921875 L 10.121094 3.765625 C 9.601562 3.550781 9.0625 2.914062 8.574219 2.601562 C 6.632812 1.375 1.648438 -1.292969 0.210938 2.214844 C -0.695312 4.429688 1.570312 6.589844 2.378906 7.714844 C 2.949219 8.5 3.675781 9.382812 4.082031 10.265625 C 4.351562 10.851562 4.394531 11.433594 4.625 12.046875 C 5.1875 13.566406 5.679688 15.214844 6.40625 16.617188 C 6.773438 17.328125 7.179688 18.074219 7.644531 18.707031 C 7.929688 19.097656 8.417969 19.269531 8.496094 19.867188 C 8.015625 20.539062 7.988281 21.578125 7.722656 22.425781 C 6.511719 26.242188 6.96875 30.984375 8.730469 33.804688 C 9.269531 34.675781 10.542969 36.53125 12.289062 35.820312 C 13.820312 35.195312 13.480469 33.265625 13.917969 31.5625 C 14.015625 31.175781 13.953125 30.890625 14.148438 30.632812 L 14.148438 30.710938 L 15.542969 33.496094 C 16.574219 35.15625 18.402344 36.894531 19.957031 38.066406 C 20.761719 38.671875 21.394531 39.722656 22.433594 40.078125 L 22.433594 40 L 22.355469 40 C 22.15625 39.6875 21.839844 39.558594 21.582031 39.304688 C 20.976562 38.710938 20.304688 37.972656 19.800781 37.292969 C 18.390625 35.375 17.144531 33.28125 16.007812 31.097656 C 15.464844 30.054688 14.992188 28.90625 14.535156 27.847656 C 14.359375 27.4375 14.363281 26.816406 13.996094 26.605469 C 13.492188 27.382812 12.753906 28.011719 12.367188 28.929688 C 11.75 30.394531 11.667969 32.1875 11.441406 34.039062 C 11.304688 34.089844 11.363281 34.054688 11.285156 34.117188 C 10.207031 33.855469 9.828125 32.746094 9.425781 31.792969 C 8.414062 29.386719 8.222656 25.507812 9.117188 22.734375 C 9.347656 22.015625 10.390625 19.757812 9.96875 19.09375 C 9.765625 18.433594 9.101562 18.050781 8.730469 17.546875 C 8.269531 16.921875 7.808594 16.101562 7.488281 15.378906 C 6.660156 13.5 6.273438 11.394531 5.398438 9.496094 C 4.980469 8.585938 4.277344 7.667969 3.695312 6.863281 C 3.054688 5.96875 2.335938 5.308594 1.835938 4.230469 C 1.660156 3.84375 1.421875 3.230469 1.683594 2.835938 C 1.765625 2.570312 1.882812 2.457031 2.148438 2.371094 C 2.597656 2.023438 3.847656 2.488281 4.3125 2.679688 C 5.554688 3.195312 6.59375 3.6875 7.644531 4.386719 C 8.148438 4.71875 8.660156 5.367188 9.269531 5.546875 L 9.96875 5.546875 C 11.058594 5.796875 12.277344 5.621094 13.296875 5.933594 C 15.097656 6.480469 16.710938 7.332031 18.175781 8.257812 C 22.636719 11.074219 26.285156 15.085938 28.78125 19.871094 C 29.183594 20.640625 29.359375 21.375 29.710938 22.191406 C 30.425781 23.839844 31.324219 25.535156 32.03125 27.148438 C 32.742188 28.757812 33.433594 30.378906 34.433594 31.71875 C 34.960938 32.421875 36.992188 32.796875 37.917969 33.1875 C 38.566406 33.460938 39.628906 33.746094 40.242188 34.117188 C 41.414062 34.824219 42.546875 35.667969 43.648438 36.441406 C 44.195312 36.828125 45.886719 37.679688 45.972656 38.375 Z M 11.359375 8.875 C 10.792969 8.867188 10.390625 8.9375 9.96875 9.03125 L 9.96875 9.109375 L 10.042969 9.109375 C 10.316406 9.664062 10.792969 10.023438 11.128906 10.5 L 11.902344 12.128906 L 11.980469 12.050781 C 12.460938 11.710938 12.679688 11.171875 12.675781 10.347656 C 12.484375 10.144531 12.457031 9.890625 12.289062 9.648438 C 12.070312 9.328125 11.640625 9.144531 11.359375 8.875 Z M 11.359375 8.875 "/>
</g>
</svg>
