<?xml version="1.0" encoding="UTF-8"?>
<svg xmlns="http://www.w3.org/2000/svg" xmlns:xlink="http://www.w3.org/1999/xlink" width="50px" height="px" viewBox="0 0 50 50" version="1.1">
<defs>
<radialGradient id="radial0" gradientUnits="userSpaceOnUse" cx="0" cy="0" fx="0" fy="0" r="1" gradientTransform="matrix(32.828656,0,0,32.828656,15.010156,16.472266)">
<stop offset="0" style="stop-color:rgb(68.235294%,69.803922%,83.529412%);stop-opacity:1;"/>
<stop offset="0.3" style="stop-color:rgb(68.235294%,69.803922%,83.529412%);stop-opacity:1;"/>
<stop offset="0.75" style="stop-color:rgb(28.235294%,29.803922%,53.72549%);stop-opacity:1;"/>
<stop offset="1" style="stop-color:rgb(28.235294%,29.803922%,53.72549%);stop-opacity:1;"/>
</radialGradient>
</defs>
<g id="surface1">
<path style=" stroke:none;fill-rule:nonzero;fill:url(#radial0);" d="M 0 25 C 0 32.261719 11.191406 38.152344 25 38.152344 C 38.808594 38.152344 50 32.261719 50 25 C 50 17.738281 38.804688 11.847656 25 11.847656 C 11.191406 11.847656 0 17.738281 0 25 Z M 0 25 "/>
<path style=" stroke:none;fill-rule:nonzero;fill:rgb(46.666667%,48.235294%,70.196078%);fill-opacity:1;" d="M 25 37.175781 C 38.265625 37.175781 49.023438 31.722656 49.023438 25 C 49.023438 18.277344 38.265625 12.824219 25 12.824219 C 11.730469 12.824219 0.976562 18.277344 0.976562 25 C 0.976562 31.722656 11.734375 37.175781 25 37.175781 Z M 25 37.175781 "/>
<path style=" stroke:none;fill-rule:nonzero;fill:rgb(0%,0%,0%);fill-opacity:1;" d="M 13.582031 26.507812 C 14.675781 26.507812 15.488281 26.308594 16.003906 25.910156 C 16.511719 25.519531 16.867188 24.839844 17.050781 23.890625 C 17.222656 23.003906 17.15625 22.386719 16.855469 22.050781 C 16.546875 21.710938 15.882812 21.535156 14.875 21.535156 L 13.132812 21.535156 L 12.164062 26.507812 Z M 7.878906 32.636719 C 7.800781 32.636719 7.722656 32.597656 7.671875 32.535156 C 7.621094 32.472656 7.597656 32.390625 7.613281 32.3125 L 10.175781 19.132812 C 10.199219 19.007812 10.3125 18.914062 10.441406 18.914062 L 15.960938 18.914062 C 17.699219 18.914062 18.988281 19.386719 19.800781 20.3125 C 20.617188 21.25 20.867188 22.554688 20.550781 24.195312 C 20.421875 24.863281 20.195312 25.484375 19.886719 26.039062 C 19.5625 26.613281 19.148438 27.128906 18.664062 27.570312 C 18.066406 28.132812 17.390625 28.539062 16.652344 28.777344 C 15.929688 29.011719 15 29.132812 13.890625 29.132812 L 11.65625 29.132812 L 11.015625 32.414062 C 10.992188 32.542969 10.882812 32.636719 10.75 32.636719 Z M 7.878906 32.636719 "/>
<path style=" stroke:none;fill-rule:nonzero;fill:rgb(100%,100%,100%);fill-opacity:1;" d="M 13.355469 21.808594 L 14.875 21.808594 C 16.089844 21.808594 16.511719 22.074219 16.652344 22.234375 C 16.890625 22.496094 16.9375 23.050781 16.78125 23.839844 C 16.613281 24.71875 16.292969 25.347656 15.835938 25.695312 C 15.371094 26.054688 14.613281 26.238281 13.582031 26.238281 L 12.496094 26.238281 Z M 15.960938 18.644531 L 10.441406 18.644531 C 10.183594 18.644531 9.957031 18.828125 9.910156 19.082031 L 7.347656 32.261719 C 7.316406 32.417969 7.359375 32.585938 7.460938 32.710938 C 7.566406 32.835938 7.71875 32.90625 7.878906 32.90625 L 10.75 32.90625 C 11.011719 32.90625 11.234375 32.722656 11.285156 32.46875 L 11.878906 29.402344 L 13.890625 29.402344 C 15.027344 29.402344 15.988281 29.277344 16.738281 29.035156 C 17.511719 28.78125 18.21875 28.359375 18.851562 27.769531 C 19.355469 27.308594 19.785156 26.769531 20.121094 26.171875 C 20.445312 25.59375 20.679688 24.945312 20.816406 24.246094 C 21.152344 22.519531 20.878906 21.136719 20.003906 20.136719 C 19.140625 19.144531 17.777344 18.640625 15.960938 18.640625 Z M 11.835938 26.78125 L 13.582031 26.78125 C 14.742188 26.78125 15.601562 26.5625 16.167969 26.125 C 16.734375 25.691406 17.117188 24.960938 17.316406 23.941406 C 17.507812 22.960938 17.417969 22.269531 17.058594 21.867188 C 16.691406 21.464844 15.964844 21.265625 14.875 21.265625 L 12.90625 21.265625 L 11.835938 26.78125 M 15.960938 19.183594 C 17.625 19.183594 18.835938 19.621094 19.597656 20.492188 C 20.359375 21.363281 20.585938 22.582031 20.285156 24.144531 C 20.160156 24.785156 19.949219 25.375 19.648438 25.90625 C 19.351562 26.441406 18.960938 26.929688 18.480469 27.371094 C 17.90625 27.90625 17.273438 28.289062 16.570312 28.519531 C 15.871094 28.746094 14.976562 28.859375 13.890625 28.859375 L 11.433594 28.859375 L 10.75 32.363281 L 7.878906 32.363281 L 10.441406 19.183594 L 15.964844 19.183594 "/>
<path style=" stroke:none;fill-rule:nonzero;fill:rgb(0%,0%,0%);fill-opacity:1;" d="M 27.132812 29.132812 C 27.050781 29.132812 26.972656 29.09375 26.921875 29.03125 C 26.871094 28.96875 26.851562 28.886719 26.867188 28.808594 L 28 22.976562 C 28.105469 22.421875 28.082031 22.023438 27.925781 21.855469 C 27.828125 21.753906 27.542969 21.582031 26.695312 21.582031 L 24.640625 21.582031 L 23.21875 28.914062 C 23.191406 29.039062 23.078125 29.132812 22.949219 29.132812 L 20.101562 29.132812 C 20.019531 29.132812 19.945312 29.09375 19.894531 29.03125 C 19.839844 28.96875 19.820312 28.886719 19.835938 28.808594 L 22.398438 15.628906 C 22.421875 15.503906 22.535156 15.410156 22.664062 15.410156 L 25.511719 15.410156 C 25.59375 15.410156 25.667969 15.445312 25.722656 15.507812 C 25.773438 15.570312 25.792969 15.652344 25.777344 15.734375 L 25.160156 18.914062 L 27.367188 18.914062 C 29.050781 18.914062 30.191406 19.210938 30.855469 19.820312 C 31.53125 20.441406 31.746094 21.4375 31.484375 22.777344 L 30.292969 28.914062 C 30.265625 29.039062 30.15625 29.132812 30.027344 29.132812 Z M 27.132812 29.132812 "/>
<path style=" stroke:none;fill-rule:nonzero;fill:rgb(100%,100%,100%);fill-opacity:1;" d="M 25.511719 15.140625 L 22.664062 15.140625 C 22.402344 15.140625 22.179688 15.324219 22.132812 15.578125 L 19.570312 28.757812 C 19.539062 28.914062 19.582031 29.082031 19.683594 29.203125 C 19.785156 29.328125 19.941406 29.402344 20.101562 29.402344 L 22.949219 29.402344 C 23.210938 29.402344 23.433594 29.21875 23.484375 28.964844 L 24.863281 21.851562 L 26.695312 21.851562 C 27.539062 21.851562 27.71875 22.035156 27.726562 22.042969 C 27.777344 22.097656 27.84375 22.351562 27.734375 22.925781 L 26.601562 28.757812 C 26.570312 28.914062 26.609375 29.082031 26.714844 29.207031 C 26.816406 29.332031 26.96875 29.402344 27.132812 29.402344 L 30.027344 29.402344 C 30.285156 29.402344 30.507812 29.21875 30.558594 28.964844 L 31.75 22.832031 C 32.03125 21.390625 31.789062 20.3125 31.039062 19.621094 C 30.324219 18.960938 29.121094 18.644531 27.367188 18.644531 L 25.488281 18.644531 L 26.042969 15.785156 C 26.074219 15.625 26.035156 15.460938 25.929688 15.335938 C 25.828125 15.210938 25.671875 15.140625 25.511719 15.140625 Z M 25.511719 15.683594 L 24.832031 19.183594 L 27.367188 19.183594 C 28.964844 19.183594 30.066406 19.464844 30.671875 20.019531 C 31.277344 20.578125 31.460938 21.480469 31.21875 22.726562 L 30.027344 28.859375 L 27.132812 28.859375 L 28.265625 23.027344 C 28.394531 22.367188 28.347656 21.914062 28.125 21.671875 C 27.898438 21.429688 27.421875 21.308594 26.695312 21.308594 L 24.417969 21.308594 L 22.949219 28.859375 L 20.101562 28.859375 L 22.664062 15.679688 L 25.511719 15.679688 Z M 25.511719 15.683594 "/>
<path style=" stroke:none;fill-rule:nonzero;fill:rgb(0%,0%,0%);fill-opacity:1;" d="M 35.992188 26.507812 C 37.082031 26.507812 37.894531 26.308594 38.410156 25.910156 C 38.921875 25.519531 39.273438 24.839844 39.457031 23.890625 C 39.628906 23.003906 39.566406 22.386719 39.261719 22.050781 C 38.953125 21.710938 38.289062 21.535156 37.285156 21.535156 L 35.539062 21.535156 L 34.574219 26.507812 Z M 30.289062 32.636719 C 30.207031 32.636719 30.132812 32.597656 30.078125 32.535156 C 30.027344 32.472656 30.007812 32.390625 30.023438 32.3125 L 32.585938 19.132812 C 32.609375 19.007812 32.71875 18.914062 32.851562 18.914062 L 38.371094 18.914062 C 40.105469 18.914062 41.398438 19.386719 42.210938 20.3125 C 43.027344 21.25 43.277344 22.554688 42.957031 24.195312 C 42.835938 24.839844 42.613281 25.464844 42.292969 26.039062 C 41.972656 26.613281 41.558594 27.128906 41.074219 27.570312 C 40.476562 28.132812 39.796875 28.539062 39.0625 28.777344 C 38.339844 29.011719 37.410156 29.132812 36.300781 29.132812 L 34.066406 29.132812 L 33.425781 32.414062 C 33.402344 32.542969 33.289062 32.636719 33.160156 32.636719 Z M 30.289062 32.636719 "/>
<path style=" stroke:none;fill-rule:nonzero;fill:rgb(100%,100%,100%);fill-opacity:1;" d="M 35.765625 21.808594 L 37.285156 21.808594 C 38.496094 21.808594 38.917969 22.074219 39.0625 22.234375 C 39.300781 22.496094 39.34375 23.050781 39.191406 23.839844 C 39.019531 24.71875 38.703125 25.347656 38.246094 25.695312 C 37.777344 26.054688 37.019531 26.238281 35.992188 26.238281 L 34.902344 26.238281 L 35.761719 21.808594 Z M 38.371094 18.644531 L 32.851562 18.644531 C 32.589844 18.644531 32.367188 18.828125 32.316406 19.082031 L 29.757812 32.261719 C 29.726562 32.421875 29.765625 32.585938 29.871094 32.710938 C 29.972656 32.835938 30.125 32.90625 30.289062 32.90625 L 33.160156 32.90625 C 33.417969 32.90625 33.640625 32.722656 33.691406 32.46875 L 34.289062 29.402344 L 36.300781 29.402344 C 37.4375 29.402344 38.394531 29.277344 39.144531 29.035156 C 39.917969 28.78125 40.628906 28.359375 41.257812 27.769531 C 41.765625 27.308594 42.195312 26.769531 42.53125 26.171875 C 42.855469 25.59375 43.089844 24.945312 43.222656 24.246094 C 43.558594 22.519531 43.289062 21.136719 42.414062 20.136719 C 41.546875 19.144531 40.1875 18.640625 38.371094 18.640625 Z M 34.246094 26.78125 L 35.992188 26.78125 C 37.148438 26.78125 38.011719 26.5625 38.578125 26.125 C 39.144531 25.691406 39.527344 24.960938 39.722656 23.941406 C 39.914062 22.960938 39.828125 22.269531 39.464844 21.867188 C 39.101562 21.464844 38.375 21.265625 37.285156 21.265625 L 35.316406 21.265625 Z M 38.371094 19.183594 C 40.03125 19.183594 41.242188 19.621094 42.003906 20.492188 C 42.765625 21.363281 42.996094 22.582031 42.691406 24.144531 C 42.566406 24.785156 42.355469 25.375 42.058594 25.90625 C 41.757812 26.441406 41.371094 26.929688 40.890625 27.371094 C 40.316406 27.90625 39.679688 28.289062 38.976562 28.519531 C 38.277344 28.746094 37.382812 28.859375 36.300781 28.859375 L 33.839844 28.859375 L 33.160156 32.363281 L 30.289062 32.363281 L 32.851562 19.183594 L 38.371094 19.183594 "/>
</g>
</svg>
