<?xml version="1.0" encoding="UTF-8"?>
<svg xmlns="http://www.w3.org/2000/svg" xmlns:xlink="http://www.w3.org/1999/xlink" width="50px" height="px" viewBox="0 0 50 50" version="1.1">
<defs>
<linearGradient id="linear0" gradientUnits="userSpaceOnUse" x1="70.252" y1="1237.476" x2="170.659" y2="1151.089" gradientTransform="matrix(0.219922,0,0,-0.221875,-11.412109,280.498828)">
<stop offset="0" style="stop-color:rgb(35.294118%,62.352941%,83.137255%);stop-opacity:1;"/>
<stop offset="1" style="stop-color:rgb(18.823529%,41.176471%,59.607843%);stop-opacity:1;"/>
</linearGradient>
<linearGradient id="linear1" gradientUnits="userSpaceOnUse" x1="209.474" y1="1098.811" x2="173.62" y2="1149.537" gradientTransform="matrix(0.219922,0,0,-0.221875,-11.412109,280.498828)">
<stop offset="0" style="stop-color:rgb(100%,83.137255%,23.137255%);stop-opacity:1;"/>
<stop offset="1" style="stop-color:rgb(100%,90.980392%,45.098039%);stop-opacity:1;"/>
</linearGradient>
<filter id="alpha" filterUnits="objectBoundingBox" x="0%" y="0%" width="100%" height="100%">
  <feColorMatrix type="matrix" in="SourceGraphic" values="0 0 0 0 1 0 0 0 0 1 0 0 0 0 1 0 0 0 1 0"/>
</filter>
<mask id="mask0">
  <g filter="url(#alpha)">
<rect x="0" y="0" width="50" height="50" style="fill:rgb(0%,0%,0%);fill-opacity:0.443137;stroke:none;"/>
  </g>
</mask>
<radialGradient id="radial0" gradientUnits="userSpaceOnUse" cx="1825.678" cy="444.45" fx="1825.678" fy="444.45" r="26.743" gradientTransform="matrix(0,-0.09375,-0.412109,0,208.194922,217.803125)">
<stop offset="0" style="stop-color:rgb(72.156863%,72.156863%,72.156863%);stop-opacity:0.498039;"/>
<stop offset="1" style="stop-color:rgb(49.803922%,49.803922%,49.803922%);stop-opacity:0;"/>
</radialGradient>
<clipPath id="clip1">
  <rect x="0" y="0" width="50" height="50"/>
</clipPath>
<g id="surface5" clip-path="url(#clip1)">
<path style=" stroke:none;fill-rule:nonzero;fill:url(#radial0);" d="M 38.011719 46.71875 C 38.011719 48.101562 32.222656 49.222656 25.085938 49.222656 C 17.945312 49.222656 12.160156 48.101562 12.160156 46.71875 C 12.160156 45.332031 17.945312 44.210938 25.085938 44.210938 C 32.222656 44.210938 38.011719 45.332031 38.011719 46.71875 Z M 38.011719 46.71875 "/>
</g>
</defs>
<g id="surface1">
<path style=" stroke:none;fill-rule:nonzero;fill:url(#linear0);" d="M 24.761719 4.785156 C 23.113281 4.792969 21.539062 4.933594 20.152344 5.179688 C 16.070312 5.898438 15.328125 7.40625 15.328125 10.191406 L 15.328125 13.867188 L 24.976562 13.867188 L 24.976562 15.09375 L 11.710938 15.09375 C 8.90625 15.09375 6.453125 16.777344 5.683594 19.984375 C 4.796875 23.660156 4.757812 25.953125 5.683594 29.789062 C 6.371094 32.644531 8.007812 34.679688 10.808594 34.679688 L 14.128906 34.679688 L 14.128906 30.269531 C 14.128906 27.085938 16.882812 24.277344 20.152344 24.277344 L 29.789062 24.277344 C 32.46875 24.277344 34.609375 22.070312 34.609375 19.378906 L 34.609375 10.191406 C 34.609375 7.578125 32.40625 5.613281 29.789062 5.179688 C 28.128906 4.902344 26.410156 4.777344 24.761719 4.785156 Z M 19.546875 7.742188 C 20.542969 7.742188 21.355469 8.566406 21.355469 9.585938 C 21.355469 10.597656 20.542969 11.417969 19.546875 11.417969 C 18.546875 11.417969 17.734375 10.597656 17.734375 9.585938 C 17.734375 8.566406 18.546875 7.742188 19.546875 7.742188 Z M 19.546875 7.742188 "/>
<path style=" stroke:none;fill-rule:nonzero;fill:url(#linear1);" d="M 35.8125 15.09375 L 35.8125 19.378906 C 35.8125 22.699219 32.996094 25.492188 29.789062 25.492188 L 20.152344 25.492188 C 17.515625 25.492188 15.332031 27.75 15.332031 30.394531 L 15.332031 39.582031 C 15.332031 42.195312 17.601562 43.730469 20.152344 44.480469 C 23.207031 45.378906 26.132812 45.539062 29.789062 44.480469 C 32.214844 43.777344 34.609375 42.363281 34.609375 39.582031 L 34.609375 35.902344 L 24.976562 35.902344 L 24.976562 34.679688 L 39.433594 34.679688 C 42.238281 34.679688 43.28125 32.722656 44.257812 29.789062 C 45.265625 26.765625 45.21875 23.859375 44.257812 19.984375 C 43.5625 17.195312 42.242188 15.09375 39.433594 15.09375 Z M 30.394531 38.355469 C 31.394531 38.355469 32.203125 39.171875 32.203125 40.1875 C 32.203125 41.203125 31.394531 42.03125 30.394531 42.03125 C 29.398438 42.03125 28.585938 41.203125 28.585938 40.1875 C 28.585938 39.171875 29.398438 38.355469 30.394531 38.355469 Z M 30.394531 38.355469 "/>
<use xlink:href="#surface5" mask="url(#mask0)"/>
</g>
</svg>
