<?xml version="1.0" encoding="UTF-8"?>
<svg xmlns="http://www.w3.org/2000/svg" xmlns:xlink="http://www.w3.org/1999/xlink" width="50px" height="px" viewBox="0 0 50 50" version="1.1">
<defs>
<linearGradient id="linear0" gradientUnits="userSpaceOnUse" x1="-15.615" y1="-9.108" x2="-6.741" y2="-9.108" gradientTransform="matrix(0.000000000000000222,3.621562,-3.621562,0.000000000000000222,-10.098437,60.59375)">
<stop offset="0" style="stop-color:rgb(58.431373%,84.313725%,95.686275%);stop-opacity:1;"/>
<stop offset="0.92" style="stop-color:rgb(5.882353%,49.803922%,80%);stop-opacity:1;"/>
<stop offset="1" style="stop-color:rgb(5.882353%,49.803922%,80%);stop-opacity:1;"/>
</linearGradient>
</defs>
<g id="surface1">
<path style=" stroke:none;fill-rule:nonzero;fill:rgb(4.313725%,49.803922%,80%);fill-opacity:1;" d="M 27.148438 38.742188 C 27.125 38.457031 27.113281 38.273438 27.113281 38.273438 C 27.113281 38.273438 26.25 32.457031 25.222656 30.71875 C 25.0625 30.445312 25.238281 29.316406 25.695312 27.640625 C 25.960938 28.097656 27.078125 30.058594 27.300781 30.691406 C 27.554688 31.40625 27.605469 31.609375 27.605469 31.609375 C 27.605469 31.609375 26.992188 28.453125 25.988281 26.609375 C 12.664062 56.105469 -20.738281 70.824219 -51.496094 60.757812 C -82.257812 50.695312 -100.496094 19.074219 -93.804688 -12.589844 C -87.117188 -44.253906 -57.652344 -65.796875 -25.449219 -62.566406 C 6.753906 -59.332031 31.347656 -32.363281 31.609375 0 C 31.988281 0.667969 32.902344 2.289062 33.105469 2.851562 C 33.144531 2.964844 33.179688 3.0625 33.210938 3.152344 C 33.21875 3.101562 33.230469 3.046875 33.238281 2.992188 C 33.007812 2.015625 32.554688 0.3125 31.9375 -0.945312 C 33.3125 -8.105469 38.003906 -17.675781 42.8125 -21.945312 L 6.601562 -21.945312 C 4.496094 -21.945312 2.777344 -20.222656 2.777344 -18.121094 L 2.777344 16.476562 C 2.777344 18.582031 4.5 20.300781 6.601562 20.300781 L 27.265625 20.300781 C 28.328125 43.824219 11.589844 64.40625 -11.652344 68.15625 C -34.898438 71.90625 -57.261719 57.636719 -63.648438 34.976562 C -70.039062 12.3125 -58.421875 -11.539062 -36.640625 -20.480469 C -14.859375 -29.421875 10.164062 -20.613281 21.542969 0 "/>
<path style=" stroke:none;fill-rule:nonzero;fill:url(#linear0);" d="M 25.695312 27.640625 C 25.960938 28.097656 27.078125 30.058594 27.300781 30.691406 C 27.554688 31.40625 27.609375 31.609375 27.609375 31.609375 C 27.609375 31.609375 26.996094 28.453125 25.988281 26.609375 C 12.554688 56.585938 -21.324219 71.609375 -52.558594 61.4375 C -83.792969 51.269531 -102.335938 19.183594 -95.546875 -12.957031 C -88.757812 -45.097656 -58.828125 -66.945312 -26.148438 -63.617188 C 6.535156 -60.285156 31.441406 -32.847656 31.609375 0 C 31.953125 0.613281 32.75 2.019531 33.035156 2.683594 L 33.066406 2.308594 C 32.8125 1.335938 32.429688 0.0546875 31.933594 -0.945312 C 33.203125 -7.535156 37.277344 -16.167969 41.671875 -20.828125 L 6.601562 -20.828125 C 12.351562 -21.574219 17.621094 -17.519531 18.367188 -11.765625 C 19.117188 -6.015625 15.058594 -0.746094 9.308594 0 L 9.308594 32.074219 C 16.15625 29.445312 24.414062 27.042969 31.519531 27.148438 C 31.257812 26.128906 30.957031 25.210938 30.640625 24.675781 C 30.476562 24.398438 30.65625 23.273438 31.109375 21.597656 "/>
<path style=" stroke:none;fill-rule:nonzero;fill:rgb(0%,22.352941%,33.72549%);fill-opacity:1;" d="M 45.292969 1.085938 C 43.144531 -0.832031 40.542969 -0.0585938 37.976562 2.21875 C 38.292969 1.453125 38.667969 0.710938 39.089844 0 C 34.695312 4.660156 30.621094 13.289062 29.355469 19.882812 C 29.847656 20.882812 30.234375 22.160156 30.484375 23.132812 C 30.550781 23.382812 30.609375 23.617188 30.65625 23.820312 C 30.769531 24.289062 30.828125 24.597656 30.828125 24.597656 C 30.828125 24.597656 30.789062 24.449219 30.628906 23.980469 C 30.597656 23.890625 30.5625 23.792969 30.523438 23.679688 C 30.503906 23.628906 30.480469 23.570312 30.453125 23.507812 C 30.167969 22.84375 29.375 21.4375 29.027344 20.828125 C 28.730469 21.707031 28.464844 22.53125 28.242188 23.273438 C 29.25 25.117188 29.863281 28.273438 29.863281 28.273438 C 29.863281 28.273438 29.8125 28.070312 29.558594 27.355469 C 29.332031 26.722656 28.214844 24.761719 27.949219 24.304688 C 27.496094 25.976562 27.316406 27.109375 27.480469 27.382812 C 27.796875 27.914062 28.09375 28.835938 28.359375 29.855469 C 28.953125 32.144531 29.367188 34.9375 29.367188 34.9375 C 29.367188 34.9375 29.382812 35.121094 29.40625 35.40625 C 17.832031 54.203125 -5.394531 62.230469 -26.105469 54.589844 C -46.816406 46.949219 -59.261719 25.761719 -55.855469 3.949219 C -52.449219 -17.859375 -34.132812 -34.242188 -12.078125 -35.199219 C 9.976562 -36.160156 29.648438 -21.433594 34.9375 0 C 35.132812 2.386719 35.503906 4.4375 35.976562 5.535156 L 36.300781 5.359375 C 35.605469 3.199219 35.324219 0.363281 35.445312 -2.902344 C 35.632812 -7.902344 36.78125 -13.925781 38.90625 -20.203125 C 42.496094 -29.683594 47.476562 -37.289062 52.03125 -40.921875 C 47.878906 -37.171875 42.257812 -25.027344 40.574219 -20.53125 C 38.691406 -15.496094 37.355469 -10.773438 36.550781 -6.246094 C 37.9375 -10.488281 42.425781 -12.3125 42.425781 -12.3125 C 42.425781 -12.3125 44.628906 -15.03125 47.203125 -18.910156 C 45.660156 -18.554688 43.128906 -17.953125 42.28125 -17.597656 C 41.03125 -17.074219 40.695312 -16.894531 40.695312 -16.894531 C 40.695312 -16.894531 44.746094 -19.363281 48.222656 -20.476562 C 53 -28.007812 58.207031 -38.699219 52.964844 -43.378906 "/>
</g>
</svg>
