<?xml version="1.0" encoding="UTF-8"?>
<svg xmlns="http://www.w3.org/2000/svg" xmlns:xlink="http://www.w3.org/1999/xlink" width="50px" height="px" viewBox="0 0 50 50" version="1.1">
<g id="surface1">
<path style=" stroke:none;fill-rule:nonzero;fill:rgb(100%,100%,100%);fill-opacity:1;" d="M 8.855469 18.359375 L 47.789062 18.359375 L 47.789062 47.136719 L 8.855469 47.136719 Z M 8.855469 18.359375 "/>
<path style=" stroke:none;fill-rule:nonzero;fill:rgb(0%,47.843137%,80%);fill-opacity:1;" d="M 0.585938 24.964844 L 0.585938 49.378906 L 49.414062 49.378906 L 49.414062 0.550781 L 0.585938 0.550781 Z M 39.933594 23.011719 C 41.046875 20.546875 43.652344 19.113281 46.328125 19.492188 C 49.007812 19.871094 51.113281 21.976562 51.492188 24.65625 C 51.871094 27.332031 50.4375 29.9375 47.972656 31.050781 C 47.972656 31.113281 45.863281 32.539062 44.578125 33.335938 C 44.53125 33.367188 44.34375 33.164062 44.136719 32.855469 C 43.441406 32.480469 42.9375 31.820312 42.757812 31.050781 C 41.277344 30.949219 40.324219 31.726562 40.332031 33.003906 C 39.792969 35.027344 37.714844 36.230469 35.691406 35.691406 C 33.667969 35.152344 32.464844 33.074219 33.003906 31.050781 C 33.328125 31.726562 33.933594 32.128906 35.832031 32.949219 C 39.328125 34.453125 40.824219 35.445312 41.753906 36.855469 C 42.792969 38.417969 43.023438 40.941406 42.320312 42.808594 C 41.539062 44.839844 39.625 46.21875 36.917969 46.675781 C 39.167969 39.636719 46.214844 35.292969 53.515625 36.445312 C 60.8125 37.597656 66.179688 43.90625 66.144531 51.296875 C 66.113281 58.683594 60.695312 64.945312 53.386719 66.035156 C 46.078125 67.125 39.066406 62.71875 36.878906 55.660156 C 36.429688 55.164062 35.554688 53.871094 35.609375 53.777344 C 36.128906 48.761719 40.617188 45.113281 45.632812 45.632812 C 50.652344 46.15625 54.296875 50.644531 53.777344 55.660156 L 32.03125 39.453125 L 33.433594 38.640625 L 33.726562 39.074219 C 38.308594 33.539062 46.507812 32.761719 52.046875 37.34375 C 57.582031 41.921875 58.359375 50.125 53.777344 55.660156 C 55.339844 56.480469 57.472656 56.367188 58.527344 55.417969 C 59.371094 56.199219 59.4375 57.511719 58.675781 58.371094 C 57.917969 59.234375 56.609375 59.339844 55.726562 58.601562 C 54.84375 57.867188 54.707031 56.5625 55.417969 55.660156 C 55.027344 55.117188 54.246094 54.660156 52.0625 53.707031 C 49.542969 52.621094 48.457031 51.949219 47.464844 50.878906 C 50.53125 49.480469 54.152344 50.679688 55.777344 53.632812 C 57.402344 56.582031 56.476562 60.289062 53.652344 62.128906 C 50.832031 63.96875 47.070312 63.320312 45.023438 60.644531 C 45.542969 58.210938 47.367188 56.511719 50.03125 56.007812 C 46.589844 50.980469 47.324219 44.199219 51.757812 40.019531 C 56.191406 35.84375 63.003906 35.519531 67.816406 39.25 C 72.628906 42.984375 74.007812 49.667969 71.0625 55 C 68.121094 60.332031 61.730469 62.726562 56.007812 60.644531 Z M 28.472656 25.058594 L 28.472656 27.058594 L 22.132812 27.058594 L 22.132812 45.117188 L 17.636719 45.117188 L 17.636719 27.054688 L 11.28125 27.054688 L 11.28125 25.101562 C 21.097656 12.75 39.066406 10.695312 51.417969 20.507812 C 63.765625 30.324219 65.824219 48.292969 56.007812 60.644531 C 11.359375 23.046875 15.234375 23.046875 19.921875 23.046875 L 28.449219 23.046875 Z M 28.472656 25.058594 "/>
</g>
</svg>
