<svg xmlns="http://www.w3.org/2000/svg" xmlns:xlink="http://www.w3.org/1999/xlink" viewBox="0,0,256,256" width="1600px" height="1600px"><g fill="#ff0000" fill-rule="nonzero" stroke="none" stroke-width="1" stroke-linecap="butt" stroke-linejoin="miter" stroke-miterlimit="10" stroke-dasharray="" stroke-dashoffset="0" font-family="none" font-weight="none" font-size="none" text-anchor="none" style="mix-blend-mode: normal"><g transform="scale(5.12,5.12)"><path d="M17.58203,0.64648c-0.71828,0.00457 -1.39851,0.14359 -2.0293,0.45898c-1.57419,0.7871 -2.22621,2.47272 -2.23047,4.20703c-0.0038,1.56263 0.44501,3.30087 1.06445,5.08594c-2.19918,2.4603 -5.91974,6.77989 -8.98047,11.2793c-1.60002,2.3521 -2.9994,4.71755 -3.86328,6.88477c-0.86388,2.16721 -1.27854,4.20268 -0.4375,5.88477c0.7871,1.57419 2.47272,2.22621 4.20703,2.23047c1.56263,0.0038 3.30087,-0.44501 5.08594,-1.06445c2.4603,2.19919 6.77989,5.91974 11.2793,8.98047c2.3521,1.60002 4.71755,2.9994 6.88477,3.86328c2.16721,0.86388 4.20268,1.27854 5.88477,0.4375c1.57419,-0.7871 2.22621,-2.47272 2.23047,-4.20703c0.0038,-1.56263 -0.44501,-3.30087 -1.06445,-5.08594c2.19919,-2.4603 5.91974,-6.7799 8.98047,-11.2793c1.60002,-2.3521 2.9994,-4.71755 3.86328,-6.88477c0.86388,-2.16721 1.27854,-4.20268 0.4375,-5.88477c-0.78705,-1.57409 -2.47283,-2.22621 -4.20703,-2.23047c-1.56263,-0.0038 -3.30043,0.44496 -5.08594,1.06445c-2.4603,-2.19918 -6.7799,-5.91974 -11.2793,-8.98047c-2.3521,-1.60002 -4.71755,-2.9994 -6.88477,-3.86328c-1.08361,-0.43194 -2.13499,-0.75097 -3.125,-0.85742c-0.2475,-0.02661 -0.49104,-0.04059 -0.73047,-0.03906zM17.625,2.67969c0.1618,0.0018 0.33313,0.01151 0.51367,0.03125c0.72218,0.07898 1.58958,0.30319 2.55859,0.68945c1.93804,0.77253 4.21955,2.1056 6.50195,3.6582c4.5648,3.10521 9.15477,7.07799 11.5,9.1875c0.27558,0.24794 0.6657,0.3231 1.01367,0.19531c1.87307,-0.68975 3.65366,-1.12238 4.9707,-1.11914c1.31705,0.0032 2.01492,0.31109 2.42188,1.125c0.39196,0.78391 0.26667,2.31196 -0.50586,4.25c-0.77253,1.93804 -2.1056,4.21955 -3.6582,6.50195c-3.10521,4.5648 -7.07799,9.15477 -9.1875,11.5c-0.24794,0.27558 -0.3231,0.6657 -0.19531,1.01367c0.68972,1.87251 1.12238,3.65351 1.11914,4.9707c-0.0032,1.31719 -0.31119,2.01497 -1.125,2.42188c-0.78391,0.39196 -2.31196,0.26667 -4.25,-0.50586c-1.93804,-0.77253 -4.21955,-2.1056 -6.50195,-3.6582c-4.5648,-3.10521 -9.15477,-7.07799 -11.5,-9.1875c-0.27558,-0.24794 -0.6657,-0.3231 -1.01367,-0.19531c-1.87251,0.68972 -3.65351,1.12238 -4.9707,1.11914c-1.31719,-0.0032 -2.01497,-0.31119 -2.42188,-1.125c-0.39196,-0.78391 -0.26667,-2.31196 0.50586,-4.25c0.77253,-1.93804 2.1056,-4.21955 3.6582,-6.50195c3.10521,-4.5648 7.07799,-9.15477 9.1875,-11.5c0.24794,-0.27558 0.3231,-0.6657 0.19531,-1.01367c-0.68972,-1.87251 -1.12238,-3.65351 -1.11914,-4.9707c0.0032,-1.31719 0.31119,-2.01497 1.125,-2.42188c0.29397,-0.14698 0.69233,-0.22025 1.17773,-0.21484zM23,9c-1.0701,0 -2.04757,0.47164 -2.57812,1.26367c-0.53055,0.79203 -0.65267,1.75347 -0.58398,2.76758c0.11747,1.73442 0.88706,3.74764 1.95313,5.75781c-0.29613,0.15389 -0.57795,0.32841 -0.84766,0.52148c-0.99204,-1.66985 -2.17195,-3.70636 -3.24219,-6.01367c-0.15122,-0.32619 -0.4659,-0.5461 -0.82419,-0.57599c-0.35829,-0.02989 -0.70505,0.13484 -0.90824,0.43146c-1.12699,1.64105 -2.8363,4.22433 -4.28125,6.80664c-1.44495,2.58231 -2.6875,5.0277 -2.6875,7.04102c0,1.0701 0.47164,2.04757 1.26367,2.57813c0.79203,0.53055 1.75347,0.65267 2.76758,0.58398c1.73442,-0.11747 3.74764,-0.88706 5.75781,-1.95312c0.15389,0.29613 0.32841,0.57795 0.52148,0.84766c-1.66985,0.99204 -3.70636,2.17195 -6.01367,3.24219c-0.32619,0.15122 -0.5461,0.4659 -0.57599,0.82419c-0.02989,0.35829 0.13484,0.70505 0.43146,0.90824c1.64105,1.12699 4.22433,2.8363 6.80664,4.28125c2.58231,1.44495 5.0277,2.6875 7.04102,2.6875c1.0701,0 2.04757,-0.47164 2.57813,-1.26367c0.53055,-0.79203 0.65267,-1.75347 0.58398,-2.76758c-0.11747,-1.73442 -0.88706,-3.74764 -1.95312,-5.75781c0.29613,-0.15389 0.57795,-0.32841 0.84766,-0.52148c0.99204,1.66985 2.17195,3.70636 3.24219,6.01367c0.15122,0.32619 0.4659,0.5461 0.82419,0.57599c0.35829,0.02989 0.70505,-0.13484 0.90824,-0.43146c1.12699,-1.64105 2.8363,-4.22433 4.28125,-6.80664c1.44495,-2.58231 2.6875,-5.0277 2.6875,-7.04102c0,-1.0701 -0.47164,-2.04757 -1.26367,-2.57812c-0.79203,-0.53055 -1.75347,-0.65267 -2.76758,-0.58398c-1.73442,0.11747 -3.74764,0.88706 -5.75781,1.95313c-0.15389,-0.29613 -0.32841,-0.57795 -0.52148,-0.84766c1.66985,-0.99204 3.70636,-2.17195 6.01367,-3.24219c0.32619,-0.15122 0.5461,-0.4659 0.57599,-0.82419c0.02989,-0.35829 -0.13484,-0.70505 -0.43146,-0.90824c-1.64105,-1.12699 -4.22433,-2.8363 -6.80664,-4.28125c-2.58231,-1.44495 -5.0277,-2.6875 -7.04102,-2.6875zM23,11c1.00669,0 3.57401,1.03809 6.06445,2.43164c1.96097,1.09728 3.69095,2.26242 5.23828,3.29687c-1.87099,0.94541 -3.68438,1.91649 -5.06055,2.71875c-1.17936,-0.90404 -2.6479,-1.44727 -4.24219,-1.44727c-0.45878,0 -0.9072,0.04778 -1.3418,0.13281c-1.05289,-1.9419 -1.73309,-3.89094 -1.82422,-5.23633c-0.05069,-0.74839 0.08119,-1.27044 0.24805,-1.51953c0.16686,-0.24909 0.33107,-0.37695 0.91797,-0.37695zM16.72852,15.69727c0.94541,1.87099 1.91649,3.68438 2.71875,5.06055c-0.90404,1.17936 -1.44727,2.6479 -1.44727,4.24219c0,0.45878 0.04778,0.9072 0.13281,1.3418c-1.9419,1.05289 -3.89094,1.73309 -5.23633,1.82422c-0.74839,0.05069 -1.27044,-0.08119 -1.51953,-0.24805c-0.24909,-0.16686 -0.37695,-0.33107 -0.37695,-0.91797c0,-1.00669 1.03809,-3.57401 2.43164,-6.06445c1.09728,-1.96097 2.26242,-3.69095 3.29687,-5.23828zM25,20c1.33891,0 2.54245,0.52798 3.4375,1.37695c0.0013,0.00131 0.0026,0.00261 0.00391,0.00391c0.09896,0.09424 0.18834,0.19711 0.2793,0.29883c0.08851,0.09922 0.17153,0.20245 0.25195,0.30859c0.08297,0.10897 0.16832,0.21648 0.24219,0.33203c0.12209,0.19239 0.23086,0.39425 0.32617,0.60352c0.04862,0.10602 0.08971,0.21634 0.13086,0.32617c0.2032,0.54588 0.32813,1.13098 0.32813,1.75c0,1.33891 -0.52798,2.54245 -1.37695,3.4375c-0.00131,0.0013 -0.00261,0.0026 -0.00391,0.00391c-0.09424,0.09896 -0.19711,0.18834 -0.29883,0.2793c-0.09922,0.08851 -0.20245,0.17153 -0.30859,0.25195c-0.10897,0.08297 -0.21648,0.16832 -0.33203,0.24219c-0.19239,0.12209 -0.39425,0.23086 -0.60352,0.32617c-0.10602,0.04862 -0.21634,0.08971 -0.32617,0.13086c-0.54588,0.2032 -1.13098,0.32813 -1.75,0.32813c-1.33891,0 -2.54245,-0.52798 -3.4375,-1.37695c-0.00133,-0.00126 -0.00258,-0.00264 -0.00391,-0.00391c-0.09896,-0.09424 -0.18834,-0.19711 -0.2793,-0.29883c-0.08851,-0.09922 -0.17153,-0.20245 -0.25195,-0.30859c-0.08297,-0.10897 -0.16832,-0.21648 -0.24219,-0.33203c-0.12209,-0.19239 -0.23086,-0.39425 -0.32617,-0.60352c-0.04862,-0.10602 -0.08971,-0.21634 -0.13086,-0.32617c-0.2032,-0.54588 -0.32812,-1.13098 -0.32812,-1.75c0,-1.33891 0.52798,-2.54245 1.37695,-3.4375c0.00126,-0.00133 0.00264,-0.00258 0.00391,-0.00391c0.09424,-0.09896 0.19711,-0.18834 0.29883,-0.2793c0.09922,-0.08851 0.20245,-0.17153 0.30859,-0.25195c0.10897,-0.08297 0.21648,-0.16832 0.33203,-0.24219c0.19239,-0.12209 0.39425,-0.23086 0.60352,-0.32617c0.10602,-0.04862 0.21634,-0.08971 0.32617,-0.13086c0.54588,-0.2032 1.13098,-0.32812 1.75,-0.32812zM37.62109,21.82813c0.47423,0.02353 0.81513,0.12876 1.00195,0.25391c0.24909,0.16686 0.37695,0.33107 0.37695,0.91797c0,1.00669 -1.03809,3.57401 -2.43164,6.06445c-1.09728,1.96097 -2.26242,3.69095 -3.29687,5.23828c-0.94541,-1.87099 -1.91649,-3.68438 -2.71875,-5.06055c0.90404,-1.17936 1.44727,-2.6479 1.44727,-4.24219c0,-0.45878 -0.04778,-0.9072 -0.13281,-1.3418c1.9419,-1.05289 3.89094,-1.73309 5.23633,-1.82422c0.1871,-0.01267 0.3595,-0.0137 0.51758,-0.00586zM26.5,22c-0.82843,0 -1.5,0.67157 -1.5,1.5c0,0.82843 0.67157,1.5 1.5,1.5c0.82843,0 1.5,-0.67157 1.5,-1.5c0,-0.82843 -0.67157,-1.5 -1.5,-1.5zM20.75781,30.55273c1.17936,0.90404 2.6479,1.44727 4.24219,1.44727c0.45878,0 0.9072,-0.04778 1.3418,-0.13281c1.05289,1.9419 1.73309,3.89094 1.82422,5.23633c0.05069,0.74839 -0.08119,1.27044 -0.24805,1.51953c-0.16686,0.24909 -0.33107,0.37695 -0.91797,0.37695c-1.00669,0 -3.57401,-1.03809 -6.06445,-2.43164c-1.96097,-1.09728 -3.69095,-2.26242 -5.23828,-3.29687c1.87099,-0.94541 3.68438,-1.91649 5.06055,-2.71875z"></path></g></g></svg>