<?xml version="1.0" encoding="UTF-8"?>
<svg xmlns="http://www.w3.org/2000/svg" xmlns:xlink="http://www.w3.org/1999/xlink" width="128px" height="128px" viewBox="0 0 128 128" version="1.1">
<g id="surface1">
<path style=" stroke:none;fill-rule:nonzero;fill:rgb(74.117647%,0%,100%);fill-opacity:1;" d="M 45.011719 1.65625 C 43.171875 1.667969 41.429688 2.023438 39.816406 2.828125 C 35.785156 4.84375 34.117188 9.160156 34.105469 13.601562 C 34.09375 17.601562 35.246094 22.050781 36.828125 26.621094 C 31.199219 32.917969 21.675781 43.976562 13.839844 55.496094 C 9.742188 61.515625 6.160156 67.570312 3.949219 73.121094 C 1.738281 78.667969 0.675781 83.878906 2.828125 88.183594 C 4.84375 92.214844 9.160156 93.882812 13.601562 93.894531 C 17.601562 93.90625 22.050781 92.753906 26.621094 91.171875 C 32.917969 96.800781 43.976562 106.324219 55.496094 114.160156 C 61.515625 118.257812 67.570312 121.839844 73.121094 124.050781 C 78.667969 126.261719 83.878906 127.324219 88.183594 125.171875 C 92.214844 123.15625 93.882812 118.839844 93.894531 114.398438 C 93.90625 110.398438 92.753906 105.949219 91.171875 101.378906 C 96.800781 95.082031 106.324219 84.023438 114.160156 72.503906 C 118.257812 66.484375 121.839844 60.429688 124.050781 54.878906 C 126.261719 49.332031 127.324219 44.121094 125.171875 39.816406 C 123.15625 35.785156 118.839844 34.117188 114.398438 34.105469 C 110.398438 34.09375 105.949219 35.242188 101.378906 36.828125 C 95.082031 31.199219 84.023438 21.675781 72.503906 13.839844 C 66.484375 9.742188 60.429688 6.160156 54.878906 3.949219 C 52.105469 2.84375 49.414062 2.027344 46.878906 1.753906 C 46.246094 1.6875 45.621094 1.652344 45.011719 1.65625 Z M 45.121094 6.859375 C 45.535156 6.863281 45.972656 6.890625 46.433594 6.941406 C 48.285156 7.140625 50.503906 7.714844 52.984375 8.703125 C 57.945312 10.683594 63.785156 14.09375 69.628906 18.070312 C 81.316406 26.019531 93.066406 36.191406 99.070312 41.589844 C 99.777344 42.226562 100.773438 42.417969 101.664062 42.089844 C 106.460938 40.324219 111.019531 39.214844 114.390625 39.226562 C 117.761719 39.234375 119.546875 40.019531 120.589844 42.105469 C 121.59375 44.113281 121.273438 48.023438 119.296875 52.984375 C 117.316406 57.945312 113.90625 63.785156 109.929688 69.628906 C 101.980469 81.316406 91.808594 93.066406 86.410156 99.070312 C 85.773438 99.777344 85.582031 100.773438 85.910156 101.664062 C 87.675781 106.457031 88.785156 111.019531 88.773438 114.390625 C 88.765625 117.761719 87.976562 119.546875 85.894531 120.589844 C 83.886719 121.59375 79.976562 121.273438 75.015625 119.296875 C 70.054688 117.316406 64.214844 113.90625 58.371094 109.929688 C 46.683594 101.980469 34.933594 91.808594 28.929688 86.410156 C 28.222656 85.773438 27.226562 85.582031 26.335938 85.910156 C 21.542969 87.675781 16.980469 88.785156 13.609375 88.773438 C 10.238281 88.765625 8.453125 87.976562 7.410156 85.894531 C 6.40625 83.886719 6.726562 79.976562 8.703125 75.015625 C 10.683594 70.054688 14.09375 64.214844 18.070312 58.371094 C 26.019531 46.683594 36.191406 34.933594 41.589844 28.929688 C 42.226562 28.222656 42.417969 27.226562 42.089844 26.335938 C 40.324219 21.542969 39.214844 16.980469 39.226562 13.609375 C 39.234375 10.238281 40.023438 8.453125 42.105469 7.410156 C 42.859375 7.035156 43.878906 6.847656 45.121094 6.859375 Z M 58.878906 23.039062 C 56.140625 23.039062 53.636719 24.246094 52.28125 26.273438 C 50.921875 28.300781 50.609375 30.765625 50.785156 33.359375 C 51.085938 37.800781 53.054688 42.953125 55.785156 48.101562 C 55.027344 48.492188 54.304688 48.941406 53.613281 49.433594 C 51.074219 45.160156 48.054688 39.945312 45.316406 34.039062 C 44.929688 33.203125 44.121094 32.640625 43.207031 32.566406 C 42.289062 32.488281 41.398438 32.910156 40.878906 33.671875 C 37.996094 37.871094 33.617188 44.484375 29.921875 51.09375 C 26.222656 57.707031 23.039062 63.964844 23.039062 69.121094 C 23.039062 71.859375 24.246094 74.363281 26.273438 75.71875 C 28.300781 77.078125 30.765625 77.390625 33.359375 77.214844 C 37.800781 76.914062 42.953125 74.945312 48.101562 72.214844 C 48.492188 72.972656 48.941406 73.695312 49.433594 74.386719 C 45.160156 76.925781 39.945312 79.945312 34.039062 82.683594 C 33.203125 83.070312 32.640625 83.878906 32.566406 84.796875 C 32.488281 85.710938 32.910156 86.601562 33.671875 87.121094 C 37.871094 90.003906 44.484375 94.382812 51.09375 98.078125 C 57.707031 101.777344 63.964844 104.960938 69.121094 104.960938 C 71.859375 104.960938 74.363281 103.753906 75.71875 101.726562 C 77.078125 99.699219 77.390625 97.234375 77.214844 94.640625 C 76.914062 90.199219 74.945312 85.046875 72.214844 79.898438 C 72.972656 79.507812 73.695312 79.058594 74.386719 78.566406 C 76.925781 82.839844 79.945312 88.054688 82.683594 93.960938 C 83.070312 94.796875 83.878906 95.359375 84.796875 95.433594 C 85.710938 95.511719 86.601562 95.089844 87.121094 94.328125 C 90.003906 90.128906 94.382812 83.515625 98.078125 76.90625 C 101.777344 70.292969 104.960938 64.035156 104.960938 58.878906 C 104.960938 56.140625 103.753906 53.636719 101.726562 52.28125 C 99.699219 50.921875 97.234375 50.609375 94.640625 50.785156 C 90.199219 51.085938 85.046875 53.054688 79.898438 55.785156 C 79.507812 55.027344 79.058594 54.304688 78.566406 53.613281 C 82.839844 51.074219 88.054688 48.054688 93.960938 45.316406 C 94.796875 44.929688 95.359375 44.121094 95.433594 43.207031 C 95.511719 42.289062 95.089844 41.398438 94.328125 40.878906 C 90.128906 37.996094 83.515625 33.617188 76.90625 29.921875 C 70.292969 26.222656 64.035156 23.039062 58.878906 23.039062 Z M 58.878906 28.160156 C 61.457031 28.160156 68.03125 30.816406 74.40625 34.386719 C 79.425781 37.195312 83.855469 40.175781 87.816406 42.824219 C 83.023438 45.246094 78.382812 47.730469 74.859375 49.785156 C 71.839844 47.46875 68.082031 46.078125 64 46.078125 C 62.824219 46.078125 61.675781 46.203125 60.566406 46.421875 C 57.871094 41.449219 56.128906 36.460938 55.894531 33.015625 C 55.765625 31.097656 56.101562 29.761719 56.53125 29.125 C 56.957031 28.488281 57.378906 28.160156 58.878906 28.160156 Z M 42.824219 40.183594 C 45.246094 44.976562 47.730469 49.617188 49.785156 53.140625 C 47.46875 56.160156 46.078125 59.917969 46.078125 64 C 46.078125 65.175781 46.203125 66.324219 46.421875 67.433594 C 41.449219 70.128906 36.460938 71.871094 33.015625 72.105469 C 31.097656 72.234375 29.761719 71.898438 29.125 71.46875 C 28.488281 71.042969 28.160156 70.621094 28.160156 69.121094 C 28.160156 66.542969 30.816406 59.96875 34.386719 53.59375 C 37.195312 48.574219 40.175781 44.144531 42.824219 40.183594 Z M 64 51.199219 C 67.425781 51.199219 70.507812 52.550781 72.800781 54.726562 C 72.804688 54.726562 72.808594 54.730469 72.808594 54.734375 C 73.0625 54.976562 73.292969 55.238281 73.523438 55.5 C 73.75 55.753906 73.964844 56.019531 74.171875 56.289062 C 74.382812 56.570312 74.601562 56.84375 74.789062 57.140625 C 75.101562 57.632812 75.382812 58.148438 75.625 58.683594 C 75.75 58.957031 75.855469 59.238281 75.960938 59.519531 C 76.480469 60.917969 76.800781 62.414062 76.800781 64 C 76.800781 67.425781 75.449219 70.507812 73.273438 72.800781 C 73.273438 72.804688 73.269531 72.808594 73.265625 72.808594 C 73.023438 73.0625 72.761719 73.292969 72.5 73.523438 C 72.246094 73.75 71.980469 73.964844 71.710938 74.171875 C 71.429688 74.382812 71.15625 74.601562 70.859375 74.789062 C 70.367188 75.101562 69.851562 75.382812 69.316406 75.625 C 69.042969 75.75 68.761719 75.855469 68.480469 75.960938 C 67.082031 76.480469 65.585938 76.800781 64 76.800781 C 60.574219 76.800781 57.492188 75.449219 55.199219 73.273438 C 55.195312 73.273438 55.195312 73.269531 55.191406 73.265625 C 54.9375 73.023438 54.707031 72.761719 54.476562 72.5 C 54.25 72.246094 54.035156 71.980469 53.828125 71.710938 C 53.617188 71.429688 53.398438 71.15625 53.210938 70.859375 C 52.898438 70.367188 52.617188 69.851562 52.375 69.316406 C 52.25 69.042969 52.144531 68.761719 52.039062 68.480469 C 51.519531 67.082031 51.199219 65.585938 51.199219 64 C 51.199219 60.574219 52.550781 57.492188 54.726562 55.199219 C 54.726562 55.195312 54.730469 55.195312 54.734375 55.191406 C 54.976562 54.9375 55.238281 54.707031 55.5 54.476562 C 55.753906 54.25 56.019531 54.035156 56.289062 53.828125 C 56.570312 53.617188 56.84375 53.398438 57.140625 53.210938 C 57.632812 52.898438 58.148438 52.617188 58.683594 52.375 C 58.957031 52.25 59.238281 52.144531 59.519531 52.039062 C 60.917969 51.519531 62.414062 51.199219 64 51.199219 Z M 96.308594 55.878906 C 97.523438 55.941406 98.398438 56.210938 98.875 56.53125 C 99.511719 56.957031 99.839844 57.378906 99.839844 58.878906 C 99.839844 61.457031 97.183594 68.03125 93.613281 74.40625 C 90.804688 79.425781 87.824219 83.855469 85.175781 87.816406 C 82.753906 83.023438 80.269531 78.382812 78.214844 74.859375 C 80.53125 71.839844 81.921875 68.082031 81.921875 64 C 81.921875 62.824219 81.796875 61.675781 81.578125 60.566406 C 86.550781 57.871094 91.539062 56.128906 94.984375 55.894531 C 95.464844 55.863281 95.90625 55.859375 96.308594 55.878906 Z M 67.839844 56.320312 C 65.71875 56.320312 64 58.039062 64 60.160156 C 64 62.28125 65.71875 64 67.839844 64 C 69.960938 64 71.679688 62.28125 71.679688 60.160156 C 71.679688 58.039062 69.960938 56.320312 67.839844 56.320312 Z M 53.140625 78.214844 C 56.160156 80.53125 59.917969 81.921875 64 81.921875 C 65.175781 81.921875 66.324219 81.796875 67.433594 81.578125 C 70.128906 86.550781 71.871094 91.539062 72.105469 94.984375 C 72.234375 96.902344 71.898438 98.238281 71.46875 98.875 C 71.042969 99.511719 70.621094 99.839844 69.121094 99.839844 C 66.542969 99.839844 59.96875 97.183594 53.59375 93.613281 C 48.574219 90.804688 44.144531 87.824219 40.183594 85.175781 C 44.976562 82.753906 49.617188 80.269531 53.140625 78.214844 Z M 53.140625 78.214844 "/>
</g>
</svg>
